<?xml version="1.0" encoding="UTF-8" standalone="no"?>
<!DOCTYPE svg PUBLIC "-//W3C//DTD SVG 1.1//EN"
 "http://www.w3.org/Graphics/SVG/1.1/DTD/svg11.dtd">
<!-- Generated by graphviz version 2.46.0 (20210119.1425)
 -->
<!-- Title: dependencies Pages: 1 -->
<svg width="3417pt" height="284pt"
 viewBox="0.00 0.00 3417.00 284.00" xmlns="http://www.w3.org/2000/svg" xmlns:xlink="http://www.w3.org/1999/xlink">
<g id="graph0" class="graph" transform="scale(1 1) rotate(0) translate(4 280)">
<title>dependencies</title>
<polygon fill="white" stroke="transparent" points="-4,4 -4,-280 3413,-280 3413,4 -4,4"/>
<text text-anchor="start" x="1683.51" y="-42.4" font-family="sans-serif" font-weight="bold" font-size="14.00">Legend</text>
<polygon fill="#ffffb3" stroke="transparent" points="1470.5,-10 1470.5,-30 1490.5,-30 1490.5,-10 1470.5,-10"/>
<text text-anchor="start" x="1494.13" y="-15.4" font-family="sans-serif" font-size="14.00"> &#160;Declarations</text>
<polygon fill="#8dd3c7" stroke="transparent" points="1583.5,-10 1583.5,-30 1603.5,-30 1603.5,-10 1583.5,-10"/>
<text text-anchor="start" x="1607.23" y="-15.4" font-family="sans-serif" font-size="14.00"> &#160;Module</text>
<polygon fill="#80b1d3" stroke="transparent" points="1669.5,-10 1669.5,-30 1689.5,-30 1689.5,-10 1669.5,-10"/>
<text text-anchor="start" x="1693.28" y="-15.4" font-family="sans-serif" font-size="14.00"> &#160;Bootstrap</text>
<polygon fill="#fdb462" stroke="transparent" points="1766.5,-10 1766.5,-30 1786.5,-30 1786.5,-10 1766.5,-10"/>
<text text-anchor="start" x="1790.17" y="-15.4" font-family="sans-serif" font-size="14.00"> &#160;Providers</text>
<polygon fill="#fb8072" stroke="transparent" points="1862.5,-10 1862.5,-30 1882.5,-30 1882.5,-10 1862.5,-10"/>
<text text-anchor="start" x="1886.23" y="-15.4" font-family="sans-serif" font-size="14.00"> &#160;Exports</text>
<g id="clust1" class="cluster">
<title>cluster_AdminModule</title>
<polygon fill="none" stroke="black" stroke-dasharray="1,5" points="8,-70 8,-195 596,-195 596,-70 8,-70"/>
</g>
<g id="clust2" class="cluster">
<title>cluster_AdminModule_declarations</title>
<polygon fill="none" stroke="black" points="184,-78 184,-130 588,-130 588,-78 184,-78"/>
</g>
<g id="clust6" class="cluster">
<title>cluster_AdminModule_imports</title>
<polygon fill="none" stroke="black" points="16,-78 16,-130 176,-130 176,-78 16,-78"/>
</g>
<g id="clust16" class="cluster">
<title>cluster_AppModule</title>
<polygon fill="none" stroke="black" stroke-dasharray="1,5" points="604,-70 604,-268 1228,-268 1228,-70 604,-70"/>
</g>
<g id="clust17" class="cluster">
<title>cluster_AppModule_declarations</title>
<polygon fill="none" stroke="black" points="1098,-78 1098,-130 1220,-130 1220,-78 1098,-78"/>
</g>
<g id="clust19" class="cluster">
<title>cluster_AppModule_imports</title>
<polygon fill="none" stroke="black" points="946,-78 946,-130 1090,-130 1090,-78 946,-78"/>
</g>
<g id="clust21" class="cluster">
<title>cluster_AppModule_bootstrap</title>
<polygon fill="none" stroke="black" points="882,-208 882,-260 1006,-260 1006,-208 882,-208"/>
</g>
<g id="clust22" class="cluster">
<title>cluster_AppModule_providers</title>
<polygon fill="none" stroke="black" points="612,-78 612,-130 938,-130 938,-78 612,-78"/>
</g>
<g id="clust29" class="cluster">
<title>cluster_ForgotPasswordModule</title>
<polygon fill="none" stroke="black" stroke-dasharray="1,5" points="1236,-70 1236,-195 1660,-195 1660,-70 1236,-70"/>
</g>
<g id="clust30" class="cluster">
<title>cluster_ForgotPasswordModule_declarations</title>
<polygon fill="none" stroke="black" points="1464,-78 1464,-130 1652,-130 1652,-78 1464,-78"/>
</g>
<g id="clust32" class="cluster">
<title>cluster_ForgotPasswordModule_imports</title>
<polygon fill="none" stroke="black" points="1244,-78 1244,-130 1456,-130 1456,-78 1244,-78"/>
</g>
<g id="clust42" class="cluster">
<title>cluster_HomeModule</title>
<polygon fill="none" stroke="black" stroke-dasharray="1,5" points="1668,-70 1668,-195 1978,-195 1978,-70 1668,-70"/>
</g>
<g id="clust43" class="cluster">
<title>cluster_HomeModule_declarations</title>
<polygon fill="none" stroke="black" points="1838,-78 1838,-130 1970,-130 1970,-78 1838,-78"/>
</g>
<g id="clust45" class="cluster">
<title>cluster_HomeModule_imports</title>
<polygon fill="none" stroke="black" points="1676,-78 1676,-130 1830,-130 1830,-78 1676,-78"/>
</g>
<g id="clust55" class="cluster">
<title>cluster_LoginModule</title>
<polygon fill="none" stroke="black" stroke-dasharray="1,5" points="1986,-70 1986,-195 2455,-195 2455,-70 1986,-70"/>
</g>
<g id="clust56" class="cluster">
<title>cluster_LoginModule_declarations</title>
<polygon fill="none" stroke="black" points="2156,-78 2156,-130 2447,-130 2447,-78 2156,-78"/>
</g>
<g id="clust59" class="cluster">
<title>cluster_LoginModule_imports</title>
<polygon fill="none" stroke="black" points="1994,-78 1994,-130 2148,-130 2148,-78 1994,-78"/>
</g>
<g id="clust69" class="cluster">
<title>cluster_RegisterModule</title>
<polygon fill="none" stroke="black" stroke-dasharray="1,5" points="2463,-70 2463,-195 3087,-195 3087,-70 2463,-70"/>
</g>
<g id="clust70" class="cluster">
<title>cluster_RegisterModule_declarations</title>
<polygon fill="none" stroke="black" points="2647,-78 2647,-130 3079,-130 3079,-78 2647,-78"/>
</g>
<g id="clust74" class="cluster">
<title>cluster_RegisterModule_imports</title>
<polygon fill="none" stroke="black" points="2471,-78 2471,-130 2639,-130 2639,-78 2471,-78"/>
</g>
<g id="clust90" class="cluster">
<title>cluster_UsersModule</title>
<polygon fill="none" stroke="black" stroke-dasharray="1,5" points="3095,-70 3095,-195 3401,-195 3401,-70 3095,-70"/>
</g>
<g id="clust91" class="cluster">
<title>cluster_UsersModule_declarations</title>
<polygon fill="none" stroke="black" points="3263,-78 3263,-130 3393,-130 3393,-78 3263,-78"/>
</g>
<g id="clust93" class="cluster">
<title>cluster_UsersModule_imports</title>
<polygon fill="none" stroke="black" points="3103,-78 3103,-130 3255,-130 3255,-78 3103,-78"/>
</g>
<!-- AdminComponent -->
<g id="node1" class="node">
<title>AdminComponent</title>
<polygon fill="#ffffb3" stroke="black" points="580.22,-122 459.78,-122 459.78,-86 580.22,-86 580.22,-122"/>
<text text-anchor="middle" x="520" y="-99.8" font-family="Times,serif" font-size="14.00">AdminComponent</text>
</g>
<!-- AdminModule -->
<g id="node4" class="node">
<title>AdminModule</title>
<polygon fill="#8dd3c7" stroke="black" points="367.44,-187 364.44,-191 343.44,-191 340.44,-187 268.56,-187 268.56,-151 367.44,-151 367.44,-187"/>
<text text-anchor="middle" x="318" y="-164.8" font-family="Times,serif" font-size="14.00">AdminModule</text>
</g>
<!-- AdminComponent&#45;&gt;AdminModule -->
<g id="edge1" class="edge">
<title>AdminComponent&#45;&gt;AdminModule</title>
<path fill="none" stroke="black" d="M520,-122.28C520,-143.32 520,-175 520,-175 520,-175 377.41,-175 377.41,-175"/>
<polygon fill="black" stroke="black" points="377.41,-171.5 367.41,-175 377.41,-178.5 377.41,-171.5"/>
</g>
<!-- LevelComponent -->
<g id="node2" class="node">
<title>LevelComponent</title>
<polygon fill="#ffffb3" stroke="black" points="441.7,-122 328.3,-122 328.3,-86 441.7,-86 441.7,-122"/>
<text text-anchor="middle" x="385" y="-99.8" font-family="Times,serif" font-size="14.00">LevelComponent</text>
</g>
<!-- LevelComponent&#45;&gt;AdminModule -->
<g id="edge2" class="edge">
<title>LevelComponent&#45;&gt;AdminModule</title>
<path fill="none" stroke="black" d="M347.81,-122.11C347.81,-122.11 347.81,-140.99 347.81,-140.99"/>
<polygon fill="black" stroke="black" points="344.31,-140.99 347.81,-150.99 351.31,-140.99 344.31,-140.99"/>
</g>
<!-- TeamsComponent -->
<g id="node3" class="node">
<title>TeamsComponent</title>
<polygon fill="#ffffb3" stroke="black" points="310.15,-122 191.85,-122 191.85,-86 310.15,-86 310.15,-122"/>
<text text-anchor="middle" x="251" y="-99.8" font-family="Times,serif" font-size="14.00">TeamsComponent</text>
</g>
<!-- TeamsComponent&#45;&gt;AdminModule -->
<g id="edge3" class="edge">
<title>TeamsComponent&#45;&gt;AdminModule</title>
<path fill="none" stroke="black" d="M289.55,-122.11C289.55,-122.11 289.55,-140.99 289.55,-140.99"/>
<polygon fill="black" stroke="black" points="286.05,-140.99 289.55,-150.99 293.05,-140.99 286.05,-140.99"/>
</g>
<!-- AdminRoutingModule -->
<g id="node5" class="node">
<title>AdminRoutingModule</title>
<polygon fill="#8dd3c7" stroke="black" points="167.56,-122 164.56,-126 143.56,-126 140.56,-122 24.44,-122 24.44,-86 167.56,-86 167.56,-122"/>
<text text-anchor="middle" x="96" y="-99.8" font-family="Times,serif" font-size="14.00">AdminRoutingModule</text>
</g>
<!-- AdminRoutingModule&#45;&gt;AdminModule -->
<g id="edge4" class="edge">
<title>AdminRoutingModule&#45;&gt;AdminModule</title>
<path fill="none" stroke="black" d="M96,-122.11C96,-141.34 96,-169 96,-169 96,-169 258.73,-169 258.73,-169"/>
<polygon fill="black" stroke="black" points="258.73,-172.5 268.73,-169 258.73,-165.5 258.73,-172.5"/>
</g>
<!-- AppComponent -->
<g id="node6" class="node">
<title>AppComponent</title>
<polygon fill="#ffffb3" stroke="black" points="1211.94,-122 1106.06,-122 1106.06,-86 1211.94,-86 1211.94,-122"/>
<text text-anchor="middle" x="1159" y="-99.8" font-family="Times,serif" font-size="14.00">AppComponent</text>
</g>
<!-- AppModule -->
<g id="node7" class="node">
<title>AppModule</title>
<polygon fill="#8dd3c7" stroke="black" points="985.66,-187 982.66,-191 961.66,-191 958.66,-187 902.34,-187 902.34,-151 985.66,-151 985.66,-187"/>
<text text-anchor="middle" x="944" y="-164.8" font-family="Times,serif" font-size="14.00">AppModule</text>
</g>
<!-- AppComponent&#45;&gt;AppModule -->
<g id="edge5" class="edge">
<title>AppComponent&#45;&gt;AppModule</title>
<path fill="none" stroke="black" d="M1159,-122.11C1159,-141.34 1159,-169 1159,-169 1159,-169 995.71,-169 995.71,-169"/>
<polygon fill="black" stroke="black" points="995.71,-165.5 985.71,-169 995.71,-172.5 995.71,-165.5"/>
</g>
<!-- AppComponent  -->
<g id="node9" class="node">
<title>AppComponent </title>
<polygon fill="#80b1d3" stroke="black" points="998.44,-252 889.56,-252 889.56,-216 998.44,-216 998.44,-252"/>
<text text-anchor="middle" x="944" y="-229.8" font-family="Times,serif" font-size="14.00">AppComponent </text>
</g>
<!-- AppModule&#45;&gt;AppComponent  -->
<g id="edge7" class="edge">
<title>AppModule&#45;&gt;AppComponent </title>
<path fill="none" stroke="black" stroke-dasharray="1,5" d="M944,-187.11C944,-187.11 944,-205.99 944,-205.99"/>
<polygon fill="black" stroke="black" points="940.5,-205.99 944,-215.99 947.5,-205.99 940.5,-205.99"/>
</g>
<!-- AppRoutingModule -->
<g id="node8" class="node">
<title>AppRoutingModule</title>
<polygon fill="#8dd3c7" stroke="black" points="1082.27,-122 1079.27,-126 1058.27,-126 1055.27,-122 953.73,-122 953.73,-86 1082.27,-86 1082.27,-122"/>
<text text-anchor="middle" x="1018" y="-99.8" font-family="Times,serif" font-size="14.00">AppRoutingModule</text>
</g>
<!-- AppRoutingModule&#45;&gt;AppModule -->
<g id="edge6" class="edge">
<title>AppRoutingModule&#45;&gt;AppModule</title>
<path fill="none" stroke="black" d="M969.72,-122.11C969.72,-122.11 969.72,-140.99 969.72,-140.99"/>
<polygon fill="black" stroke="black" points="966.22,-140.99 969.72,-150.99 973.22,-140.99 966.22,-140.99"/>
</g>
<!-- AuthService -->
<g id="node10" class="node">
<title>AuthService</title>
<ellipse fill="#fdb462" stroke="black" cx="871" cy="-104" rx="59.11" ry="18"/>
<text text-anchor="middle" x="871" y="-99.8" font-family="Times,serif" font-size="14.00">AuthService</text>
</g>
<!-- AuthService&#45;&gt;AppModule -->
<g id="edge8" class="edge">
<title>AuthService&#45;&gt;AppModule</title>
<path fill="none" stroke="black" d="M916.24,-115.92C916.24,-115.92 916.24,-140.77 916.24,-140.77"/>
<polygon fill="black" stroke="black" points="912.74,-140.77 916.24,-150.77 919.74,-140.77 912.74,-140.77"/>
</g>
<!-- NotificationService -->
<g id="node11" class="node">
<title>NotificationService</title>
<ellipse fill="#fdb462" stroke="black" cx="707" cy="-104" rx="86.81" ry="18"/>
<text text-anchor="middle" x="707" y="-99.8" font-family="Times,serif" font-size="14.00">NotificationService</text>
</g>
<!-- NotificationService&#45;&gt;AppModule -->
<g id="edge9" class="edge">
<title>NotificationService&#45;&gt;AppModule</title>
<path fill="none" stroke="black" d="M707,-122.02C707,-139.37 707,-163 707,-163 707,-163 892.17,-163 892.17,-163"/>
<polygon fill="black" stroke="black" points="892.17,-166.5 902.17,-163 892.17,-159.5 892.17,-166.5"/>
</g>
<!-- ForgotPasswordComponent -->
<g id="node12" class="node">
<title>ForgotPasswordComponent</title>
<polygon fill="#ffffb3" stroke="black" points="1644.32,-122 1471.68,-122 1471.68,-86 1644.32,-86 1644.32,-122"/>
<text text-anchor="middle" x="1558" y="-99.8" font-family="Times,serif" font-size="14.00">ForgotPasswordComponent</text>
</g>
<!-- ForgotPasswordModule -->
<g id="node13" class="node">
<title>ForgotPasswordModule</title>
<polygon fill="#8dd3c7" stroke="black" points="1529.04,-187 1526.04,-191 1505.04,-191 1502.04,-187 1378.96,-187 1378.96,-151 1529.04,-151 1529.04,-187"/>
<text text-anchor="middle" x="1454" y="-164.8" font-family="Times,serif" font-size="14.00">ForgotPasswordModule</text>
</g>
<!-- ForgotPasswordComponent&#45;&gt;ForgotPasswordModule -->
<g id="edge10" class="edge">
<title>ForgotPasswordComponent&#45;&gt;ForgotPasswordModule</title>
<path fill="none" stroke="black" d="M1500.55,-122.11C1500.55,-122.11 1500.55,-140.99 1500.55,-140.99"/>
<polygon fill="black" stroke="black" points="1497.05,-140.99 1500.55,-150.99 1504.05,-140.99 1497.05,-140.99"/>
</g>
<!-- ForgotPasswordRoutingModule -->
<g id="node14" class="node">
<title>ForgotPasswordRoutingModule</title>
<polygon fill="#8dd3c7" stroke="black" points="1447.66,-122 1444.66,-126 1423.66,-126 1420.66,-122 1252.34,-122 1252.34,-86 1447.66,-86 1447.66,-122"/>
<text text-anchor="middle" x="1350" y="-99.8" font-family="Times,serif" font-size="14.00">ForgotPasswordRoutingModule</text>
</g>
<!-- ForgotPasswordRoutingModule&#45;&gt;ForgotPasswordModule -->
<g id="edge11" class="edge">
<title>ForgotPasswordRoutingModule&#45;&gt;ForgotPasswordModule</title>
<path fill="none" stroke="black" d="M1413.28,-122.11C1413.28,-122.11 1413.28,-140.99 1413.28,-140.99"/>
<polygon fill="black" stroke="black" points="1409.78,-140.99 1413.28,-150.99 1416.78,-140.99 1409.78,-140.99"/>
</g>
<!-- HomeComponent -->
<g id="node15" class="node">
<title>HomeComponent</title>
<polygon fill="#ffffb3" stroke="black" points="1961.55,-122 1846.45,-122 1846.45,-86 1961.55,-86 1961.55,-122"/>
<text text-anchor="middle" x="1904" y="-99.8" font-family="Times,serif" font-size="14.00">HomeComponent</text>
</g>
<!-- HomeModule -->
<g id="node16" class="node">
<title>HomeModule</title>
<polygon fill="#8dd3c7" stroke="black" points="1874.76,-187 1871.76,-191 1850.76,-191 1847.76,-187 1781.24,-187 1781.24,-151 1874.76,-151 1874.76,-187"/>
<text text-anchor="middle" x="1828" y="-164.8" font-family="Times,serif" font-size="14.00">HomeModule</text>
</g>
<!-- HomeComponent&#45;&gt;HomeModule -->
<g id="edge12" class="edge">
<title>HomeComponent&#45;&gt;HomeModule</title>
<path fill="none" stroke="black" d="M1860.55,-122.11C1860.55,-122.11 1860.55,-140.99 1860.55,-140.99"/>
<polygon fill="black" stroke="black" points="1857.05,-140.99 1860.55,-150.99 1864.05,-140.99 1857.05,-140.99"/>
</g>
<!-- HomeRoutingModule -->
<g id="node17" class="node">
<title>HomeRoutingModule</title>
<polygon fill="#8dd3c7" stroke="black" points="1822.38,-122 1819.38,-126 1798.38,-126 1795.38,-122 1683.62,-122 1683.62,-86 1822.38,-86 1822.38,-122"/>
<text text-anchor="middle" x="1753" y="-99.8" font-family="Times,serif" font-size="14.00">HomeRoutingModule</text>
</g>
<!-- HomeRoutingModule&#45;&gt;HomeModule -->
<g id="edge13" class="edge">
<title>HomeRoutingModule&#45;&gt;HomeModule</title>
<path fill="none" stroke="black" d="M1801.78,-122.11C1801.78,-122.11 1801.78,-140.99 1801.78,-140.99"/>
<polygon fill="black" stroke="black" points="1798.28,-140.99 1801.78,-150.99 1805.28,-140.99 1798.28,-140.99"/>
</g>
<!-- LoginComponent -->
<g id="node18" class="node">
<title>LoginComponent</title>
<polygon fill="#ffffb3" stroke="black" points="2439.28,-122 2324.72,-122 2324.72,-86 2439.28,-86 2439.28,-122"/>
<text text-anchor="middle" x="2382" y="-99.8" font-family="Times,serif" font-size="14.00">LoginComponent</text>
</g>
<!-- LoginModule -->
<g id="node20" class="node">
<title>LoginModule</title>
<polygon fill="#8dd3c7" stroke="black" points="2281.49,-187 2278.49,-191 2257.49,-191 2254.49,-187 2188.51,-187 2188.51,-151 2281.49,-151 2281.49,-187"/>
<text text-anchor="middle" x="2235" y="-164.8" font-family="Times,serif" font-size="14.00">LoginModule</text>
</g>
<!-- LoginComponent&#45;&gt;LoginModule -->
<g id="edge14" class="edge">
<title>LoginComponent&#45;&gt;LoginModule</title>
<path fill="none" stroke="black" d="M2382,-122.28C2382,-143.32 2382,-175 2382,-175 2382,-175 2291.51,-175 2291.51,-175"/>
<polygon fill="black" stroke="black" points="2291.51,-171.5 2281.51,-175 2291.51,-178.5 2291.51,-171.5"/>
</g>
<!-- SendEmailComponent -->
<g id="node19" class="node">
<title>SendEmailComponent</title>
<polygon fill="#ffffb3" stroke="black" points="2306.27,-122 2163.73,-122 2163.73,-86 2306.27,-86 2306.27,-122"/>
<text text-anchor="middle" x="2235" y="-99.8" font-family="Times,serif" font-size="14.00">SendEmailComponent</text>
</g>
<!-- SendEmailComponent&#45;&gt;LoginModule -->
<g id="edge15" class="edge">
<title>SendEmailComponent&#45;&gt;LoginModule</title>
<path fill="none" stroke="black" d="M2235,-122.11C2235,-122.11 2235,-140.99 2235,-140.99"/>
<polygon fill="black" stroke="black" points="2231.5,-140.99 2235,-150.99 2238.5,-140.99 2231.5,-140.99"/>
</g>
<!-- LoginRoutingModule -->
<g id="node21" class="node">
<title>LoginRoutingModule</title>
<polygon fill="#8dd3c7" stroke="black" points="2140.11,-122 2137.11,-126 2116.11,-126 2113.11,-122 2001.89,-122 2001.89,-86 2140.11,-86 2140.11,-122"/>
<text text-anchor="middle" x="2071" y="-99.8" font-family="Times,serif" font-size="14.00">LoginRoutingModule</text>
</g>
<!-- LoginRoutingModule&#45;&gt;LoginModule -->
<g id="edge16" class="edge">
<title>LoginRoutingModule&#45;&gt;LoginModule</title>
<path fill="none" stroke="black" d="M2071,-122.11C2071,-141.34 2071,-169 2071,-169 2071,-169 2178.44,-169 2178.44,-169"/>
<polygon fill="black" stroke="black" points="2178.44,-172.5 2188.44,-169 2178.44,-165.5 2178.44,-172.5"/>
</g>
<!-- QuestionsComponent -->
<g id="node22" class="node">
<title>QuestionsComponent</title>
<polygon fill="#ffffb3" stroke="black" points="3070.82,-122 2933.18,-122 2933.18,-86 3070.82,-86 3070.82,-122"/>
<text text-anchor="middle" x="3002" y="-99.8" font-family="Times,serif" font-size="14.00">QuestionsComponent</text>
</g>
<!-- RegisterModule -->
<g id="node25" class="node">
<title>RegisterModule</title>
<polygon fill="#8dd3c7" stroke="black" points="2834.2,-187 2831.2,-191 2810.2,-191 2807.2,-187 2727.8,-187 2727.8,-151 2834.2,-151 2834.2,-187"/>
<text text-anchor="middle" x="2781" y="-164.8" font-family="Times,serif" font-size="14.00">RegisterModule</text>
</g>
<!-- QuestionsComponent&#45;&gt;RegisterModule -->
<g id="edge17" class="edge">
<title>QuestionsComponent&#45;&gt;RegisterModule</title>
<path fill="none" stroke="black" d="M3002,-122.11C3002,-141.34 3002,-169 3002,-169 3002,-169 2844.22,-169 2844.22,-169"/>
<polygon fill="black" stroke="black" points="2844.22,-165.5 2834.22,-169 2844.22,-172.5 2844.22,-165.5"/>
</g>
<!-- RegisterComponent -->
<g id="node23" class="node">
<title>RegisterComponent</title>
<polygon fill="#ffffb3" stroke="black" points="2914.98,-122 2787.02,-122 2787.02,-86 2914.98,-86 2914.98,-122"/>
<text text-anchor="middle" x="2851" y="-99.8" font-family="Times,serif" font-size="14.00">RegisterComponent</text>
</g>
<!-- RegisterComponent&#45;&gt;RegisterModule -->
<g id="edge18" class="edge">
<title>RegisterComponent&#45;&gt;RegisterModule</title>
<path fill="none" stroke="black" d="M2810.55,-122.11C2810.55,-122.11 2810.55,-140.99 2810.55,-140.99"/>
<polygon fill="black" stroke="black" points="2807.05,-140.99 2810.55,-150.99 2814.05,-140.99 2807.05,-140.99"/>
</g>
<!-- Step2Component -->
<g id="node24" class="node">
<title>Step2Component</title>
<polygon fill="#ffffb3" stroke="black" points="2768.72,-122 2655.28,-122 2655.28,-86 2768.72,-86 2768.72,-122"/>
<text text-anchor="middle" x="2712" y="-99.8" font-family="Times,serif" font-size="14.00">Step2Component</text>
</g>
<!-- Step2Component&#45;&gt;RegisterModule -->
<g id="edge19" class="edge">
<title>Step2Component&#45;&gt;RegisterModule</title>
<path fill="none" stroke="black" d="M2748.25,-122.11C2748.25,-122.11 2748.25,-140.99 2748.25,-140.99"/>
<polygon fill="black" stroke="black" points="2744.75,-140.99 2748.25,-150.99 2751.75,-140.99 2744.75,-140.99"/>
</g>
<!-- RegisterRoutingModule -->
<g id="node26" class="node">
<title>RegisterRoutingModule</title>
<polygon fill="#8dd3c7" stroke="black" points="2630.82,-122 2627.82,-126 2606.82,-126 2603.82,-122 2479.18,-122 2479.18,-86 2630.82,-86 2630.82,-122"/>
<text text-anchor="middle" x="2555" y="-99.8" font-family="Times,serif" font-size="14.00">RegisterRoutingModule</text>
</g>
<!-- RegisterRoutingModule&#45;&gt;RegisterModule -->
<g id="edge20" class="edge">
<title>RegisterRoutingModule&#45;&gt;RegisterModule</title>
<path fill="none" stroke="black" d="M2555,-122.02C2555,-139.37 2555,-163 2555,-163 2555,-163 2717.73,-163 2717.73,-163"/>
<polygon fill="black" stroke="black" points="2717.73,-166.5 2727.73,-163 2717.73,-159.5 2717.73,-166.5"/>
</g>
<!-- UsersComponent -->
<g id="node27" class="node">
<title>UsersComponent</title>
<polygon fill="#ffffb3" stroke="black" points="3384.7,-122 3271.3,-122 3271.3,-86 3384.7,-86 3384.7,-122"/>
<text text-anchor="middle" x="3328" y="-99.8" font-family="Times,serif" font-size="14.00">UsersComponent</text>
</g>
<!-- UsersModule -->
<g id="node28" class="node">
<title>UsersModule</title>
<polygon fill="#8dd3c7" stroke="black" points="3298.92,-187 3295.92,-191 3274.92,-191 3271.92,-187 3207.08,-187 3207.08,-151 3298.92,-151 3298.92,-187"/>
<text text-anchor="middle" x="3253" y="-164.8" font-family="Times,serif" font-size="14.00">UsersModule</text>
</g>
<!-- UsersComponent&#45;&gt;UsersModule -->
<g id="edge21" class="edge">
<title>UsersComponent&#45;&gt;UsersModule</title>
<path fill="none" stroke="black" d="M3285.05,-122.11C3285.05,-122.11 3285.05,-140.99 3285.05,-140.99"/>
<polygon fill="black" stroke="black" points="3281.55,-140.99 3285.05,-150.99 3288.55,-140.99 3281.55,-140.99"/>
</g>
<!-- UsersRoutingModule -->
<g id="node29" class="node">
<title>UsersRoutingModule</title>
<polygon fill="#8dd3c7" stroke="black" points="3247.04,-122 3244.04,-126 3223.04,-126 3220.04,-122 3110.96,-122 3110.96,-86 3247.04,-86 3247.04,-122"/>
<text text-anchor="middle" x="3179" y="-99.8" font-family="Times,serif" font-size="14.00">UsersRoutingModule</text>
</g>
<!-- UsersRoutingModule&#45;&gt;UsersModule -->
<g id="edge22" class="edge">
<title>UsersRoutingModule&#45;&gt;UsersModule</title>
<path fill="none" stroke="black" d="M3227.28,-122.11C3227.28,-122.11 3227.28,-140.99 3227.28,-140.99"/>
<polygon fill="black" stroke="black" points="3223.78,-140.99 3227.28,-150.99 3230.78,-140.99 3223.78,-140.99"/>
</g>
</g>
</svg>
