<?xml version="1.0" encoding="UTF-8" standalone="no"?>
<!DOCTYPE svg PUBLIC "-//W3C//DTD SVG 1.1//EN"
 "http://www.w3.org/Graphics/SVG/1.1/DTD/svg11.dtd">
<!-- Generated by graphviz version 2.46.0 (20210119.1425)
 -->
<!-- Title: dependencies Pages: 1 -->
<svg width="612pt" height="211pt"
 viewBox="0.00 0.00 612.00 211.00" xmlns="http://www.w3.org/2000/svg" xmlns:xlink="http://www.w3.org/1999/xlink">
<g id="graph0" class="graph" transform="scale(1 1) rotate(0) translate(4 207)">
<title>dependencies</title>
<polygon fill="white" stroke="transparent" points="-4,4 -4,-207 608,-207 608,4 -4,4"/>
<text text-anchor="start" x="281.01" y="-42.4" font-family="sans-serif" font-weight="bold" font-size="14.00">Legend</text>
<polygon fill="#ffffb3" stroke="transparent" points="68,-10 68,-30 88,-30 88,-10 68,-10"/>
<text text-anchor="start" x="91.63" y="-15.4" font-family="sans-serif" font-size="14.00"> &#160;Declarations</text>
<polygon fill="#8dd3c7" stroke="transparent" points="181,-10 181,-30 201,-30 201,-10 181,-10"/>
<text text-anchor="start" x="204.73" y="-15.4" font-family="sans-serif" font-size="14.00"> &#160;Module</text>
<polygon fill="#80b1d3" stroke="transparent" points="267,-10 267,-30 287,-30 287,-10 267,-10"/>
<text text-anchor="start" x="290.78" y="-15.4" font-family="sans-serif" font-size="14.00"> &#160;Bootstrap</text>
<polygon fill="#fdb462" stroke="transparent" points="364,-10 364,-30 384,-30 384,-10 364,-10"/>
<text text-anchor="start" x="387.67" y="-15.4" font-family="sans-serif" font-size="14.00"> &#160;Providers</text>
<polygon fill="#fb8072" stroke="transparent" points="460,-10 460,-30 480,-30 480,-10 460,-10"/>
<text text-anchor="start" x="483.73" y="-15.4" font-family="sans-serif" font-size="14.00"> &#160;Exports</text>
<g id="clust1" class="cluster">
<title>cluster_AdminModule</title>
<polygon fill="none" stroke="black" stroke-dasharray="1,5" points="8,-70 8,-195 596,-195 596,-70 8,-70"/>
</g>
<g id="clust2" class="cluster">
<title>cluster_AdminModule_declarations</title>
<polygon fill="none" stroke="black" points="184,-78 184,-130 588,-130 588,-78 184,-78"/>
</g>
<g id="clust6" class="cluster">
<title>cluster_AdminModule_imports</title>
<polygon fill="none" stroke="black" points="16,-78 16,-130 176,-130 176,-78 16,-78"/>
</g>
<!-- AdminComponent -->
<g id="node1" class="node">
<title>AdminComponent</title>
<polygon fill="#ffffb3" stroke="black" points="580.22,-122 459.78,-122 459.78,-86 580.22,-86 580.22,-122"/>
<text text-anchor="middle" x="520" y="-99.8" font-family="Times,serif" font-size="14.00">AdminComponent</text>
</g>
<!-- AdminModule -->
<g id="node4" class="node">
<title>AdminModule</title>
<polygon fill="#8dd3c7" stroke="black" points="367.44,-187 364.44,-191 343.44,-191 340.44,-187 268.56,-187 268.56,-151 367.44,-151 367.44,-187"/>
<text text-anchor="middle" x="318" y="-164.8" font-family="Times,serif" font-size="14.00">AdminModule</text>
</g>
<!-- AdminComponent&#45;&gt;AdminModule -->
<g id="edge1" class="edge">
<title>AdminComponent&#45;&gt;AdminModule</title>
<path fill="none" stroke="black" d="M520,-122.11C520,-141.34 520,-169 520,-169 520,-169 377.41,-169 377.41,-169"/>
<polygon fill="black" stroke="black" points="377.41,-165.5 367.41,-169 377.41,-172.5 377.41,-165.5"/>
</g>
<!-- LevelComponent -->
<g id="node2" class="node">
<title>LevelComponent</title>
<polygon fill="#ffffb3" stroke="black" points="441.7,-122 328.3,-122 328.3,-86 441.7,-86 441.7,-122"/>
<text text-anchor="middle" x="385" y="-99.8" font-family="Times,serif" font-size="14.00">LevelComponent</text>
</g>
<!-- LevelComponent&#45;&gt;AdminModule -->
<g id="edge2" class="edge">
<title>LevelComponent&#45;&gt;AdminModule</title>
<path fill="none" stroke="black" d="M347.81,-122.11C347.81,-122.11 347.81,-140.99 347.81,-140.99"/>
<polygon fill="black" stroke="black" points="344.31,-140.99 347.81,-150.99 351.31,-140.99 344.31,-140.99"/>
</g>
<!-- TeamsComponent -->
<g id="node3" class="node">
<title>TeamsComponent</title>
<polygon fill="#ffffb3" stroke="black" points="310.15,-122 191.85,-122 191.85,-86 310.15,-86 310.15,-122"/>
<text text-anchor="middle" x="251" y="-99.8" font-family="Times,serif" font-size="14.00">TeamsComponent</text>
</g>
<!-- TeamsComponent&#45;&gt;AdminModule -->
<g id="edge3" class="edge">
<title>TeamsComponent&#45;&gt;AdminModule</title>
<path fill="none" stroke="black" d="M289.55,-122.11C289.55,-122.11 289.55,-140.99 289.55,-140.99"/>
<polygon fill="black" stroke="black" points="286.05,-140.99 289.55,-150.99 293.05,-140.99 286.05,-140.99"/>
</g>
<!-- AdminRoutingModule -->
<g id="node5" class="node">
<title>AdminRoutingModule</title>
<polygon fill="#8dd3c7" stroke="black" points="167.56,-122 164.56,-126 143.56,-126 140.56,-122 24.44,-122 24.44,-86 167.56,-86 167.56,-122"/>
<text text-anchor="middle" x="96" y="-99.8" font-family="Times,serif" font-size="14.00">AdminRoutingModule</text>
</g>
<!-- AdminRoutingModule&#45;&gt;AdminModule -->
<g id="edge4" class="edge">
<title>AdminRoutingModule&#45;&gt;AdminModule</title>
<path fill="none" stroke="black" d="M96,-122.11C96,-141.34 96,-169 96,-169 96,-169 258.73,-169 258.73,-169"/>
<polygon fill="black" stroke="black" points="258.73,-172.5 268.73,-169 258.73,-165.5 258.73,-172.5"/>
</g>
</g>
</svg>
