<?xml version="1.0" encoding="UTF-8" standalone="no"?>
<!DOCTYPE svg PUBLIC "-//W3C//DTD SVG 1.1//EN"
 "http://www.w3.org/Graphics/SVG/1.1/DTD/svg11.dtd">
<!-- Generated by graphviz version 2.46.0 (20210119.1425)
 -->
<!-- Title: dependencies Pages: 1 -->
<svg width="648pt" height="211pt"
 viewBox="0.00 0.00 648.00 211.00" xmlns="http://www.w3.org/2000/svg" xmlns:xlink="http://www.w3.org/1999/xlink">
<g id="graph0" class="graph" transform="scale(1 1) rotate(0) translate(4 207)">
<title>dependencies</title>
<polygon fill="white" stroke="transparent" points="-4,4 -4,-207 644,-207 644,4 -4,4"/>
<text text-anchor="start" x="299.01" y="-42.4" font-family="sans-serif" font-weight="bold" font-size="14.00">Legend</text>
<polygon fill="#ffffb3" stroke="transparent" points="86,-10 86,-30 106,-30 106,-10 86,-10"/>
<text text-anchor="start" x="109.63" y="-15.4" font-family="sans-serif" font-size="14.00"> &#160;Declarations</text>
<polygon fill="#8dd3c7" stroke="transparent" points="199,-10 199,-30 219,-30 219,-10 199,-10"/>
<text text-anchor="start" x="222.73" y="-15.4" font-family="sans-serif" font-size="14.00"> &#160;Module</text>
<polygon fill="#80b1d3" stroke="transparent" points="285,-10 285,-30 305,-30 305,-10 285,-10"/>
<text text-anchor="start" x="308.78" y="-15.4" font-family="sans-serif" font-size="14.00"> &#160;Bootstrap</text>
<polygon fill="#fdb462" stroke="transparent" points="382,-10 382,-30 402,-30 402,-10 382,-10"/>
<text text-anchor="start" x="405.67" y="-15.4" font-family="sans-serif" font-size="14.00"> &#160;Providers</text>
<polygon fill="#fb8072" stroke="transparent" points="478,-10 478,-30 498,-30 498,-10 478,-10"/>
<text text-anchor="start" x="501.73" y="-15.4" font-family="sans-serif" font-size="14.00"> &#160;Exports</text>
<g id="clust1" class="cluster">
<title>cluster_RegisterModule</title>
<polygon fill="none" stroke="black" stroke-dasharray="1,5" points="8,-70 8,-195 632,-195 632,-70 8,-70"/>
</g>
<g id="clust2" class="cluster">
<title>cluster_RegisterModule_declarations</title>
<polygon fill="none" stroke="black" points="192,-78 192,-130 624,-130 624,-78 192,-78"/>
</g>
<g id="clust6" class="cluster">
<title>cluster_RegisterModule_imports</title>
<polygon fill="none" stroke="black" points="16,-78 16,-130 184,-130 184,-78 16,-78"/>
</g>
<!-- QuestionsComponent -->
<g id="node1" class="node">
<title>QuestionsComponent</title>
<polygon fill="#ffffb3" stroke="black" points="615.82,-122 478.18,-122 478.18,-86 615.82,-86 615.82,-122"/>
<text text-anchor="middle" x="547" y="-99.8" font-family="Times,serif" font-size="14.00">QuestionsComponent</text>
</g>
<!-- RegisterModule -->
<g id="node4" class="node">
<title>RegisterModule</title>
<polygon fill="#8dd3c7" stroke="black" points="379.2,-187 376.2,-191 355.2,-191 352.2,-187 272.8,-187 272.8,-151 379.2,-151 379.2,-187"/>
<text text-anchor="middle" x="326" y="-164.8" font-family="Times,serif" font-size="14.00">RegisterModule</text>
</g>
<!-- QuestionsComponent&#45;&gt;RegisterModule -->
<g id="edge1" class="edge">
<title>QuestionsComponent&#45;&gt;RegisterModule</title>
<path fill="none" stroke="black" d="M547,-122.11C547,-141.34 547,-169 547,-169 547,-169 389.22,-169 389.22,-169"/>
<polygon fill="black" stroke="black" points="389.22,-165.5 379.22,-169 389.22,-172.5 389.22,-165.5"/>
</g>
<!-- RegisterComponent -->
<g id="node2" class="node">
<title>RegisterComponent</title>
<polygon fill="#ffffb3" stroke="black" points="459.98,-122 332.02,-122 332.02,-86 459.98,-86 459.98,-122"/>
<text text-anchor="middle" x="396" y="-99.8" font-family="Times,serif" font-size="14.00">RegisterComponent</text>
</g>
<!-- RegisterComponent&#45;&gt;RegisterModule -->
<g id="edge2" class="edge">
<title>RegisterComponent&#45;&gt;RegisterModule</title>
<path fill="none" stroke="black" d="M355.55,-122.11C355.55,-122.11 355.55,-140.99 355.55,-140.99"/>
<polygon fill="black" stroke="black" points="352.05,-140.99 355.55,-150.99 359.05,-140.99 352.05,-140.99"/>
</g>
<!-- Step2Component -->
<g id="node3" class="node">
<title>Step2Component</title>
<polygon fill="#ffffb3" stroke="black" points="313.72,-122 200.28,-122 200.28,-86 313.72,-86 313.72,-122"/>
<text text-anchor="middle" x="257" y="-99.8" font-family="Times,serif" font-size="14.00">Step2Component</text>
</g>
<!-- Step2Component&#45;&gt;RegisterModule -->
<g id="edge3" class="edge">
<title>Step2Component&#45;&gt;RegisterModule</title>
<path fill="none" stroke="black" d="M293.25,-122.11C293.25,-122.11 293.25,-140.99 293.25,-140.99"/>
<polygon fill="black" stroke="black" points="289.75,-140.99 293.25,-150.99 296.75,-140.99 289.75,-140.99"/>
</g>
<!-- RegisterRoutingModule -->
<g id="node5" class="node">
<title>RegisterRoutingModule</title>
<polygon fill="#8dd3c7" stroke="black" points="175.82,-122 172.82,-126 151.82,-126 148.82,-122 24.18,-122 24.18,-86 175.82,-86 175.82,-122"/>
<text text-anchor="middle" x="100" y="-99.8" font-family="Times,serif" font-size="14.00">RegisterRoutingModule</text>
</g>
<!-- RegisterRoutingModule&#45;&gt;RegisterModule -->
<g id="edge4" class="edge">
<title>RegisterRoutingModule&#45;&gt;RegisterModule</title>
<path fill="none" stroke="black" d="M100,-122.11C100,-141.34 100,-169 100,-169 100,-169 262.73,-169 262.73,-169"/>
<polygon fill="black" stroke="black" points="262.73,-172.5 272.73,-169 262.73,-165.5 262.73,-172.5"/>
</g>
</g>
</svg>
