<?xml version="1.0" encoding="UTF-8" standalone="no"?>
<!DOCTYPE svg PUBLIC "-//W3C//DTD SVG 1.1//EN"
 "http://www.w3.org/Graphics/SVG/1.1/DTD/svg11.dtd">
<!-- Generated by graphviz version 2.46.0 (20210119.1425)
 -->
<!-- Title: dependencies Pages: 1 -->
<svg width="504pt" height="211pt"
 viewBox="0.00 0.00 504.00 211.00" xmlns="http://www.w3.org/2000/svg" xmlns:xlink="http://www.w3.org/1999/xlink">
<g id="graph0" class="graph" transform="scale(1 1) rotate(0) translate(4 207)">
<title>dependencies</title>
<polygon fill="white" stroke="transparent" points="-4,4 -4,-207 500,-207 500,4 -4,4"/>
<text text-anchor="start" x="227.01" y="-42.4" font-family="sans-serif" font-weight="bold" font-size="14.00">Legend</text>
<polygon fill="#ffffb3" stroke="transparent" points="14,-10 14,-30 34,-30 34,-10 14,-10"/>
<text text-anchor="start" x="37.63" y="-15.4" font-family="sans-serif" font-size="14.00"> &#160;Declarations</text>
<polygon fill="#8dd3c7" stroke="transparent" points="127,-10 127,-30 147,-30 147,-10 127,-10"/>
<text text-anchor="start" x="150.73" y="-15.4" font-family="sans-serif" font-size="14.00"> &#160;Module</text>
<polygon fill="#80b1d3" stroke="transparent" points="213,-10 213,-30 233,-30 233,-10 213,-10"/>
<text text-anchor="start" x="236.78" y="-15.4" font-family="sans-serif" font-size="14.00"> &#160;Bootstrap</text>
<polygon fill="#fdb462" stroke="transparent" points="310,-10 310,-30 330,-30 330,-10 310,-10"/>
<text text-anchor="start" x="333.67" y="-15.4" font-family="sans-serif" font-size="14.00"> &#160;Providers</text>
<polygon fill="#fb8072" stroke="transparent" points="406,-10 406,-30 426,-30 426,-10 406,-10"/>
<text text-anchor="start" x="429.73" y="-15.4" font-family="sans-serif" font-size="14.00"> &#160;Exports</text>
<g id="clust1" class="cluster">
<title>cluster_LoginModule</title>
<polygon fill="none" stroke="black" stroke-dasharray="1,5" points="13.5,-70 13.5,-195 482.5,-195 482.5,-70 13.5,-70"/>
</g>
<g id="clust2" class="cluster">
<title>cluster_LoginModule_declarations</title>
<polygon fill="none" stroke="black" points="183.5,-78 183.5,-130 474.5,-130 474.5,-78 183.5,-78"/>
</g>
<g id="clust5" class="cluster">
<title>cluster_LoginModule_imports</title>
<polygon fill="none" stroke="black" points="21.5,-78 21.5,-130 175.5,-130 175.5,-78 21.5,-78"/>
</g>
<!-- LoginComponent -->
<g id="node1" class="node">
<title>LoginComponent</title>
<polygon fill="#ffffb3" stroke="black" points="466.78,-122 352.22,-122 352.22,-86 466.78,-86 466.78,-122"/>
<text text-anchor="middle" x="409.5" y="-99.8" font-family="Times,serif" font-size="14.00">LoginComponent</text>
</g>
<!-- LoginModule -->
<g id="node3" class="node">
<title>LoginModule</title>
<polygon fill="#8dd3c7" stroke="black" points="308.99,-187 305.99,-191 284.99,-191 281.99,-187 216.01,-187 216.01,-151 308.99,-151 308.99,-187"/>
<text text-anchor="middle" x="262.5" y="-164.8" font-family="Times,serif" font-size="14.00">LoginModule</text>
</g>
<!-- LoginComponent&#45;&gt;LoginModule -->
<g id="edge1" class="edge">
<title>LoginComponent&#45;&gt;LoginModule</title>
<path fill="none" stroke="black" d="M409.5,-122.11C409.5,-141.34 409.5,-169 409.5,-169 409.5,-169 319.01,-169 319.01,-169"/>
<polygon fill="black" stroke="black" points="319.01,-165.5 309.01,-169 319.01,-172.5 319.01,-165.5"/>
</g>
<!-- SendEmailComponent -->
<g id="node2" class="node">
<title>SendEmailComponent</title>
<polygon fill="#ffffb3" stroke="black" points="333.77,-122 191.23,-122 191.23,-86 333.77,-86 333.77,-122"/>
<text text-anchor="middle" x="262.5" y="-99.8" font-family="Times,serif" font-size="14.00">SendEmailComponent</text>
</g>
<!-- SendEmailComponent&#45;&gt;LoginModule -->
<g id="edge2" class="edge">
<title>SendEmailComponent&#45;&gt;LoginModule</title>
<path fill="none" stroke="black" d="M262.5,-122.11C262.5,-122.11 262.5,-140.99 262.5,-140.99"/>
<polygon fill="black" stroke="black" points="259,-140.99 262.5,-150.99 266,-140.99 259,-140.99"/>
</g>
<!-- LoginRoutingModule -->
<g id="node4" class="node">
<title>LoginRoutingModule</title>
<polygon fill="#8dd3c7" stroke="black" points="167.61,-122 164.61,-126 143.61,-126 140.61,-122 29.39,-122 29.39,-86 167.61,-86 167.61,-122"/>
<text text-anchor="middle" x="98.5" y="-99.8" font-family="Times,serif" font-size="14.00">LoginRoutingModule</text>
</g>
<!-- LoginRoutingModule&#45;&gt;LoginModule -->
<g id="edge3" class="edge">
<title>LoginRoutingModule&#45;&gt;LoginModule</title>
<path fill="none" stroke="black" d="M98.5,-122.11C98.5,-141.34 98.5,-169 98.5,-169 98.5,-169 205.94,-169 205.94,-169"/>
<polygon fill="black" stroke="black" points="205.94,-172.5 215.94,-169 205.94,-165.5 205.94,-172.5"/>
</g>
</g>
</svg>
